# xmcd
#
# Track frame offsets: 
#        150
#        11959
#        21070
#        32223
#        42572
#        63272
#        71764
#        78595
#        91787
#        104754
#        117286
#        125119
#        132661
#        145842
#        152591
#        157999
#        163211
#        168334
#        177688
#        191643
#        204355
#        215501
#        227019
#        236717
#
# Disc length: 3345 seconds
#
# Revision: 2
# Processed by: cddbd v1.5.2PL0 Copyright (c) Steve Scherf et al.
# Submitted via: ExactAudioCopy v0.99pb2
#
DISCID=630d0f18
DTITLE=Efi Thodi - Live
DYEAR=2005
DGENRE=Folk
TTITLE0=Dyo Filakia
TTITLE1=An De Se Apoktiso
TTITLE2=Ena Melanouri
TTITLE3=Treis Foties Me Kaine
TTITLE4=Ti Thes Na Kano Ego Gia Sena
TTITLE5=S' Agapo Kai Se Latreyo
TTITLE6=Amartola Ta Matia Sou
TTITLE7=Glyka Glyka Glykeia Mou
TTITLE8=Pou Na 'nai Tetoia Ora I Agapi Mou
TTITLE9=Moiazo M' Ena Dentro Marameno
TTITLE10=Kosme Giati
TTITLE11=Eimaste Paranomoi
TTITLE12=Ta Matia Mias Gynaikas
TTITLE13=Enas Erotas
TTITLE14=Pote Pote
TTITLE15=Ekato Kardies Na Eiha
TTITLE16=Stin Paro Kai Sti Naxo
TTITLE17=Lygaria
TTITLE18=Hronia Polla
TTITLE19=Marazono Kai Pono
TTITLE20=Agapi Mou Theostalti
TTITLE21=Ti Theleis Na Sou Kano
TTITLE22=Thelo Aponi Kardia [Kardiologos]
TTITLE23=Xanthe Mou Aggele
EXTD=YEAR: 2005
EXTT0=
EXTT1=
EXTT2=
EXTT3=
EXTT4=
EXTT5=
EXTT6=
EXTT7=
EXTT8=
EXTT9=
EXTT10=
EXTT11=
EXTT12=
EXTT13=
EXTT14=
EXTT15=
EXTT16=
EXTT17=
EXTT18=
EXTT19=
EXTT20=
EXTT21=
EXTT22=
EXTT23=
PLAYORDER=
